<?xml version="1.0" standalone="no"?>
<!DOCTYPE svg PUBLIC "-//W3C//DTD SVG 20010904//EN"
 "http://www.w3.org/TR/2001/REC-SVG-20010904/DTD/svg10.dtd">
<svg version="1.0" xmlns="http://www.w3.org/2000/svg"
 width="166.000000pt" height="205.000000pt" viewBox="0 0 166.000000 205.000000"
 preserveAspectRatio="xMidYMid meet">

<g transform="translate(0.000000,205.000000) scale(0.100000,-0.100000)"
fill="#000000" stroke="none">
<path d="M696 1978 c-85 -235 -123 -349 -117 -346 3 2 35 18 71 36 36 18 88
35 117 38 l51 7 56 161 c31 88 56 164 56 169 0 4 -47 7 -104 7 l-104 0 -26
-72z"/>
<path d="M730 1651 c-85 -28 -170 -100 -209 -178 -65 -130 -32 -308 75 -402
67 -58 124 -82 228 -91 184 -18 279 -81 350 -230 27 -57 31 -75 30 -150 -1
-155 -75 -275 -212 -342 -62 -31 -74 -33 -167 -33 -90 0 -106 3 -160 29 -76
38 -143 105 -181 181 -26 54 -29 70 -29 155 0 52 4 105 8 116 7 20 0 24 -78
53 -47 17 -92 31 -99 31 -19 0 -41 -111 -40 -205 4 -353 333 -624 681 -561
186 33 342 150 421 316 46 98 62 163 62 258 0 159 -56 289 -175 407 -113 114
-249 174 -389 175 -92 0 -156 58 -156 140 0 78 62 140 140 140 42 0 69 -14
106 -57 l32 -36 80 28 c44 15 86 31 92 35 17 11 -23 83 -73 134 -64 64 -126
89 -227 92 -47 2 -96 0 -110 -5z"/>
<path d="M722 892 c-70 -25 -120 -67 -159 -132 -59 -97 -65 -193 -18 -295 83
-183 315 -236 481 -110 33 25 94 110 94 130 0 17 -144 69 -149 54 -9 -27 -65
-79 -97 -89 -139 -46 -261 129 -167 241 14 16 38 36 54 44 61 32 151 9 191
-49 12 -17 23 -33 24 -34 5 -7 144 42 144 50 0 21 -42 86 -77 119 -86 82 -212
110 -321 71z"/>
<path d="M186 530 c-11 -28 -186 -522 -186 -526 0 -3 48 -3 107 -2 l108 3 42
118 42 118 -39 82 c-22 45 -46 114 -53 152 -8 39 -17 63 -21 55z"/>
<path d="M1446 467 c-9 -41 -32 -107 -51 -146 -19 -40 -35 -76 -35 -81 0 -5
18 -61 41 -124 l41 -116 104 0 c58 0 104 4 104 9 0 11 -179 523 -184 529 -2 2
-11 -30 -20 -71z"/>
</g>
</svg>
